<svg width="100%" height="100%" viewBox="0 0 36 36" fill="none" xmlns="http://www.w3.org/2000/svg">
<path d="M18.2923 22.472C17.8869 22.472 17.5669 22.344 17.3323 22.088C17.1189 21.8107 17.0123 21.448 17.0123 21C17.0123 20.0187 17.1936 19.1013 17.5563 18.248C17.9403 17.3947 18.5803 16.4667 19.4763 15.464C20.1589 14.7173 20.6283 14.0773 20.8843 13.544C21.1616 13.0107 21.3003 12.4453 21.3003 11.848C21.3003 11.144 21.0443 10.5893 20.5323 10.184C20.0203 9.77867 19.2949 9.576 18.3563 9.576C17.5029 9.576 16.7243 9.69333 16.0203 9.928C15.3376 10.1413 14.6443 10.4507 13.9403 10.856C13.3643 11.1973 12.8523 11.3147 12.4043 11.208C11.9776 11.08 11.6683 10.824 11.4763 10.44C11.2843 10.056 11.2523 9.62933 11.3803 9.16C11.5083 8.69067 11.8496 8.27467 12.4043 7.912C13.2789 7.336 14.2816 6.89867 15.4123 6.6C16.5429 6.28 17.6096 6.12 18.6123 6.12C19.9563 6.12 21.1296 6.344 22.1323 6.792C23.1563 7.24 23.9456 7.85867 24.5003 8.648C25.0763 9.43733 25.3643 10.3653 25.3643 11.432C25.3643 12.4133 25.1403 13.3307 24.6923 14.184C24.2656 15.0373 23.4976 15.9653 22.3883 16.968C21.3856 17.8853 20.6923 18.6747 20.3083 19.336C19.9243 19.9973 19.6789 20.7013 19.5723 21.448C19.5509 21.7467 19.4229 21.992 19.1883 22.184C18.9749 22.376 18.6763 22.472 18.2923 22.472ZM18.2283 29.16C17.5029 29.16 16.9163 28.936 16.4683 28.488C16.0416 28.04 15.8283 27.464 15.8283 26.76C15.8283 26.0773 16.0416 25.5227 16.4683 25.096C16.9163 24.648 17.5029 24.424 18.2283 24.424C18.9749 24.424 19.5509 24.648 19.9563 25.096C20.3829 25.5227 20.5963 26.0773 20.5963 26.76C20.5963 27.464 20.3829 28.04 19.9563 28.488C19.5509 28.936 18.9749 29.16 18.2283 29.16Z" fill="#929292"/>
</svg>